<svg xmlns="http://www.w3.org/2000/svg" width="24" height="24" viewBox="0 0 24 24" fill="none" shape-rendering="crispEdges"><title>单词学习</title><path fill="currentColor" d="M5 6h6v1H5zM14 6h5v1H14zM5 7h1v1H5zM11 7h1v1H11zM13 7h1v1H13zM18 7h1v1H18zM5 8h1v1H5zM12 8h1v1H12zM18 8h1v1H18zM5 9h1v1H5zM7 9h3v1H7zM12 9h1v1H12zM14 9h3v1H14zM18 9h1v1H18zM5 10h1v1H5zM12 10h1v1H12zM18 10h1v1H18zM5 11h1v1H5zM12 11h1v1H12zM18 11h1v1H18zM5 12h1v1H5zM7 12h3v1H7zM12 12h1v1H12zM14 12h3v1H14zM18 12h1v1H18zM5 13h1v1H5zM12 13h1v1H12zM18 13h1v1H18zM5 14h1v1H5zM12 14h1v1H12zM18 14h1v1H18zM5 15h1v1H5zM12 15h1v1H12zM18 15h1v1H18zM5 16h6v1H5zM12 16h1v1H12zM14 16h5v1H14zM11 17h3v1H11zM12 18h1v1H12z"/></svg>
